<?xml version="1.0" encoding="UTF-8" standalone="no"?>
<svg
   xmlns:dc="http://purl.org/dc/elements/1.1/"
   xmlns:cc="http://creativecommons.org/ns#"
   xmlns:rdf="http://www.w3.org/1999/02/22-rdf-syntax-ns#"
   xmlns:svg="http://www.w3.org/2000/svg"
   xmlns="http://www.w3.org/2000/svg"
   xmlns:sodipodi="http://sodipodi.sourceforge.net/DTD/sodipodi-0.dtd"
   xmlns:inkscape="http://www.inkscape.org/namespaces/inkscape"
   version="1.1"
   width="23.568348"
   height="23.711063"
   viewBox="0 0 23.568348 23.711063"
   id="svg885"
   sodipodi:docname="dino-emoticon-add-sybolic.svg"
   inkscape:version="0.92.4 (unknown)">
  <metadata
     id="metadata891">
    <rdf:RDF>
      <cc:Work
         rdf:about="">
        <dc:format>image/svg+xml</dc:format>
        <dc:type
           rdf:resource="http://purl.org/dc/dcmitype/StillImage" />
        <dc:title></dc:title>
      </cc:Work>
    </rdf:RDF>
  </metadata>
  <defs
     id="defs889" />
  <sodipodi:namedview
     pagecolor="#ffffff"
     bordercolor="#666666"
     borderopacity="1"
     objecttolerance="10"
     gridtolerance="10"
     guidetolerance="10"
     inkscape:pageopacity="0"
     inkscape:pageshadow="2"
     inkscape:window-width="3840"
     inkscape:window-height="2050"
     id="namedview887"
     showgrid="false"
     fit-margin-top="0"
     fit-margin-left="0"
     fit-margin-right="0"
     fit-margin-bottom="0"
     inkscape:zoom="13.088841"
     inkscape:cx="-20.740364"
     inkscape:cy="25.652644"
     inkscape:window-x="0"
     inkscape:window-y="54"
     inkscape:window-maximized="1"
     inkscape:current-layer="svg885" />
  <path
     d="m 10,19.211063 c 2.33,0 4.3,-1.46 5.11,-3.5 H 4.89 c 0.8,2.04 2.78,3.5 5.11,3.5 m -3.5,-6.5 c 0.8284271,0 1.5,-0.671573 1.5,-1.5 0,-0.828428 -0.6715729,-1.5000004 -1.5,-1.5000004 -0.8284271,0 -1.5,0.6715724 -1.5,1.5000004 0,0.828427 0.6715729,1.5 1.5,1.5 m 7,0 c 0.828427,0 1.5,-0.671573 1.5,-1.5 0,-0.828428 -0.671573,-1.5000004 -1.5,-1.5000004 -0.828427,0 -1.5,0.6715724 -1.5,1.5000004 0,0.828427 0.671573,1.5 1.5,1.5 m -3.5,9 c -4.418278,0 -8,-3.581722 -8,-8 0,-4.4182784 3.581722,-8.0000004 8,-8.0000004 1.436688,-0.016553 1.458067,-1.961314 0,-2 -5.53,0 -10,4.5 -10,10.0000004 0,5.522847 4.4771525,10 10,10 5.522847,0 10,-4.477153 10,-10 0,-1.054449 -2,-1.032372 -2,0 0,4.418278 -3.581722,8 -8,8"
     id="path883"
     inkscape:connector-curvature="0"
     sodipodi:nodetypes="cccccsssccsssccsccssccc" />
  <text
     xml:space="preserve"
     style="font-style:normal;font-variant:normal;font-weight:normal;font-stretch:normal;font-size:66.66666412px;line-height:8px;font-family:Roboto;-inkscape-font-specification:Roboto;letter-spacing:0px;word-spacing:0px;fill:#000000;fill-opacity:1;stroke:#ffffff;stroke-width:0.37795275;stroke-miterlimit:4;stroke-dasharray:none;stroke-opacity:1"
     x="13.707372"
     y="9.8956432"
     id="text895"><tspan
       sodipodi:role="line"
       id="tspan893"
       x="13.707372"
       y="9.8956432"
       style="font-style:normal;font-variant:normal;font-weight:bold;font-stretch:normal;font-size:17.33333397px;font-family:FreeMono;-inkscape-font-specification:'FreeMono Bold';stroke:#000000;stroke-width:0.37795275;stroke-miterlimit:4;stroke-dasharray:none;stroke-opacity:1">+</tspan></text>
</svg>
